<svg xmlns="http://www.w3.org/2000/svg" id="svg__logo" viewBox="0 0 522.3 116.8"><style type="text/css">  
	.svg__logo--blue{fill:#3257A8;}
	.svg__logo--yellow{fill:#F4CF70;}
</style><path class="svg__logo--blue" d="M26.4 99.6c0 1.3-0.5 2.4-1.4 3.3 -0.9 0.9-2 1.4-3.3 1.4s-2.4-0.5-3.3-1.4c-0.9-0.9-1.4-2-1.4-3.3V43.8c0-1.3 0.5-2.4 1.4-3.3 0.9-0.9 2-1.4 3.3-1.4s2.4 0.5 3.3 1.4c0.9 0.9 1.4 2 1.4 3.3V45c4.6-3.9 10-5.9 16.3-5.9 7.1 0 13.1 2.5 18.1 7.5 1 1 2 2.2 2.8 3.3 0.9-1.2 1.8-2.3 2.8-3.3 5-5 11-7.5 18.1-7.5 7.1 0 13.1 2.5 18.1 7.5s7.5 11 7.5 18.1v34.9c0 1.3-0.5 2.4-1.4 3.3 -0.9 0.9-2 1.4-3.3 1.4s-2.4-0.5-3.3-1.4c-0.9-0.9-1.4-2-1.4-3.3V64.7c0-4.5-1.6-8.3-4.8-11.5 -3.2-3.2-7-4.8-11.5-4.8 -4.5 0-8.3 1.6-11.5 4.8 -3.2 3.2-4.8 7-4.8 11.5v34.9c0 1.3-0.5 2.4-1.4 3.3 -0.9 0.9-2 1.4-3.3 1.4s-2.4-0.5-3.3-1.4c-0.9-0.9-1.4-2-1.4-3.3V64.7c0-4.5-1.6-8.3-4.8-11.5 -3.2-3.2-7-4.8-11.5-4.8 -4.5 0-8.3 1.6-11.5 4.8 -3.2 3.2-4.8 7-4.8 11.5V99.6z"/><path class="svg__logo--blue" d="M166.7 88.4c1.3 0 2.4 0.5 3.3 1.4 0.9 0.9 1.4 2 1.4 3.3 0 1.3-0.4 2.4-1.3 3.3 -6 5.2-13.1 7.8-21.2 7.8 -9 0-16.7-3.2-23-9.5 -6.4-6.4-9.5-14-9.5-23s3.2-16.7 9.5-23c6.4-6.4 14-9.5 23-9.5 9 0 16.7 3.2 23 9.5 6.4 6.4 9.5 14 9.5 23 0 1.3-0.5 2.4-1.4 3.3 -0.9 0.9-2 1.4-3.3 1.4H126c0.9 4.5 3 8.4 6.4 11.8 4.5 4.5 10 6.8 16.4 6.8 5.8 0 10.8-1.8 15-5.5C164.6 88.8 165.6 88.4 166.7 88.4zM171.6 67.1c-0.9-4.5-3-8.4-6.4-11.8 -4.5-4.5-10-6.8-16.4-6.8 -6.4 0-11.9 2.3-16.4 6.8 -3.4 3.4-5.5 7.3-6.4 11.8H171.6z"/><path class="svg__logo--blue" d="M227.3 93.5c-2.6 1-5.4 1.5-8.4 1.5 -6.4 0-11.9-2.3-16.4-6.8s-6.8-10-6.8-16.4c0-6.4 2.3-11.9 6.8-16.4s10-6.8 16.4-6.8c3 0 5.8 0.5 8.4 1.5 1.1-1.4 2.3-2.8 3.6-4.1 1.1-1.1 2.2-2.1 3.3-3 -4.6-2.5-9.7-3.7-15.3-3.7 -9 0-16.7 3.2-23 9.5 -6.4 6.4-9.5 14-9.5 23 0 9 3.2 16.7 9.5 23 6.4 6.4 14 9.5 23 9.5 5.6 0 10.7-1.2 15.3-3.7 -1.1-0.9-2.3-1.9-3.3-3C229.6 96.2 228.4 94.9 227.3 93.5z"/><path class="svg__logo--blue" d="M250.3 12.5c-0.9-0.9-2.1-1.4-3.4-1.4s-2.6 0.5-3.5 1.4c-0.9 0.9-1.6 2-1.6 3.3V38c3-1.3 7-2.1 10-2.6V15.8C251.8 14.5 251.2 13.4 250.3 12.5z"/><path class="svg__logo--blue" d="M251.8 52c-4 0.6-8.2 2.4-11.4 5.6 -0.6 0.6-1.1 1.2-1.6 1.8 2.3 3.6 3.4 7.7 3.4 12.3 0 4.6-1.2 8.7-3.5 12.3 0.5 0.6 1 1.2 1.6 1.8 1.8 1.8 3.8 3.1 5.9 4.1 3.7-5.3 5.6-11.3 5.6-18.1V52z"/><path class="svg__logo--yellow" d="M273.1 88.3c1.3 0 2.4 0.5 3.3 1.4 0.9 0.9 1.4 2 1.4 3.3s-0.5 2.4-1.5 3.4c-6 5.2-13.1 7.8-21.2 7.8 -9 0-16.7-3.2-23-9.5 -6.4-6.4-9.5-14-9.5-23 0-9 3.2-16.7 9.5-23 6.4-6.4 14-9.5 23-9.5 8.1 0 15.2 2.6 21.2 7.8 1.1 1 1.6 2.2 1.6 3.6 0 1.3-0.5 2.4-1.4 3.3 -0.9 0.9-2 1.4-3.3 1.4 -1.1 0-2.1-0.3-3-1 -4.3-3.8-9.4-5.8-15.2-5.8 -6.4 0-11.9 2.3-16.4 6.8s-6.8 10-6.8 16.4c0 6.4 2.3 11.9 6.8 16.4s10 6.8 16.4 6.8c5.8 0 10.9-1.9 15.2-5.7C271.1 88.6 272 88.3 273.1 88.3z"/><path class="svg__logo--yellow" d="M284.6 15.9c0-1.3 0.5-2.4 1.4-3.3 0.9-0.9 2-1.4 3.3-1.4 1.3 0 2.4 0.5 3.3 1.4 0.9 0.9 1.4 2 1.4 3.3v31.7c5.8-5.6 12.8-8.4 20.9-8.4 8.3 0 15.4 3 21.4 8.9 5.9 5.9 8.9 13 8.9 21.4v30.2c0 1.3-0.5 2.4-1.4 3.3 -0.9 0.9-2 1.4-3.3 1.4 -1.3 0-2.4-0.5-3.3-1.4 -0.9-0.9-1.4-2-1.4-3.3V69.4c0-5.8-2-10.7-6.1-14.8 -4.1-4.1-9-6.1-14.8-6.1 -5.8 0-10.7 2-14.8 6.1 -4.1 4.1-6.1 9-6.1 14.8v30.2c0 1.3-0.5 2.4-1.4 3.3 -0.9 0.9-2 1.4-3.3 1.4 -1.3 0-2.4-0.5-3.3-1.4 -0.9-0.9-1.4-2-1.4-3.3V15.9z"/><path class="svg__logo--yellow" d="M405.9 94.5c-6.5 6.5-14.3 9.8-23.2 9.8 -9 0-16.7-3.2-23-9.5 -6.4-6.4-9.5-14-9.5-23s3.2-16.7 9.5-23c6.4-6.4 14-9.5 23-9.5 9 0 16.7 3.2 23 9.5 6.4 6.4 9.5 14 9.5 23v27.9c0 1.3-0.5 2.4-1.4 3.3 -0.9 0.9-2 1.4-3.3 1.4 -1.3 0-2.4-0.5-3.3-1.4 -0.9-0.9-1.4-2-1.4-3.3V94.5zM382.7 48.5c-6.4 0-11.9 2.3-16.4 6.8 -4.5 4.5-6.8 10-6.8 16.4s2.3 11.9 6.8 16.4c4.5 4.5 10 6.8 16.4 6.8 6.4 0 11.9-2.3 16.4-6.8 4.5-4.5 6.8-10 6.8-16.4s-2.3-11.9-6.8-16.4C394.6 50.7 389.1 48.5 382.7 48.5z"/><path class="svg__logo--yellow" d="M434.3 25.2c0 1.6-0.6 3-1.7 4.1 -1.1 1.1-2.5 1.7-4.1 1.7 -1.6 0-3-0.6-4.1-1.7 -1.1-1.1-1.7-2.5-1.7-4.1 0-1.6 0.6-3 1.7-4.1 1.1-1.1 2.5-1.7 4.1-1.7 1.6 0 3 0.6 4.1 1.7C433.7 22.3 434.3 23.6 434.3 25.2zM423.9 43.8c0-1.3 0.5-2.4 1.4-3.3 0.9-0.9 2-1.4 3.3-1.4 1.3 0 2.4 0.5 3.3 1.4 0.9 0.9 1.4 2 1.4 3.3v55.8c0 1.3-0.5 2.4-1.4 3.3 -0.9 0.9-2 1.4-3.3 1.4 -1.3 0-2.4-0.5-3.3-1.4 -0.9-0.9-1.4-2-1.4-3.3V43.8z"/><path class="svg__logo--yellow" d="M442.8 43.8c0-1.3 0.5-2.4 1.4-3.3 0.9-0.9 2-1.4 3.3-1.4 1.3 0 2.4 0.5 3.3 1.4 0.9 0.9 1.4 2 1.4 3.3v3.8c5.8-5.6 12.8-8.4 20.9-8.4 8.3 0 15.4 3 21.4 8.9 5.9 5.9 8.9 13 8.9 21.4v30.2c0 1.3-0.5 2.4-1.4 3.3 -0.9 0.9-2 1.4-3.3 1.4 -1.3 0-2.4-0.5-3.3-1.4 -0.9-0.9-1.4-2-1.4-3.3V69.4c0-5.8-2-10.7-6.1-14.8 -4.1-4.1-9-6.1-14.8-6.1 -5.8 0-10.7 2-14.8 6.1 -4.1 4.1-6.1 9-6.1 14.8v30.2c0 1.3-0.5 2.4-1.4 3.3 -0.9 0.9-2 1.4-3.3 1.4 -1.3 0-2.4-0.5-3.3-1.4 -0.9-0.9-1.4-2-1.4-3.3V43.8z"/></svg>